<svg width="93" height="53" viewBox="0 0 93 53" fill="none" xmlns="http://www.w3.org/2000/svg">
<path d="M0.907728 0H0V53H0.907728V0Z" fill="black"/>
<path d="M3.66017 0H2.75244V53H3.66017V0Z" fill="black"/>
<path d="M11.0684 0H10.1606V53H11.0684V0Z" fill="black"/>
<path d="M12.562 0H11.6543V53H12.562V0Z" fill="black"/>
<path d="M13.9087 0H13.001V53H13.9087V0Z" fill="black"/>
<path d="M22.752 0H21.8442V53H22.752V0Z" fill="black"/>
<path d="M32.7081 0H32.0347V53H32.7081V0Z" fill="black"/>
<path d="M34.2594 0H33.5859V53H34.2594V0Z" fill="black"/>
<path d="M35.5773 0H34.9038V53H35.5773V0Z" fill="black"/>
<path d="M36.8366 0H36.1631V53H36.8366V0Z" fill="black"/>
<path d="M43.2198 0H42.5464V53H43.2198V0Z" fill="black"/>
<path d="M44.7716 0H44.0981V53H44.7716V0Z" fill="black"/>
<path d="M46.1188 0H45.4453V53H46.1188V0Z" fill="black"/>
<path d="M58.798 0H58.1245V53H58.798V0Z" fill="black"/>
<path d="M70.7451 0H69.6909V53H70.7451V0Z" fill="black"/>
<path d="M77.9482 0H76.894V53H77.9482V0Z" fill="black"/>
<path d="M72.2968 0H71.2427V53H72.2968V0Z" fill="black"/>
<path d="M79.559 0H78.5049V53H79.559V0Z" fill="black"/>
<path d="M81.1987 0H80.1445V53H81.1987V0Z" fill="black"/>
<path d="M85.2392 0H84.1851V53H85.2392V0Z" fill="black"/>
<path d="M83.336 0H81.5498V53H83.336V0Z" fill="black"/>
<path d="M87.8453 0H86.0591V53H87.8453V0Z" fill="black"/>
<path d="M90.4512 0H88.665V53H90.4512V0Z" fill="black"/>
<path d="M92.2959 0H91.3882V53H92.2959V0Z" fill="black"/>
<path d="M66.2354 0H65.3276V53H66.2354V0Z" fill="black"/>
<path d="M63.6878 0H62.3994V53H63.6878V0Z" fill="black"/>
<path d="M47.3776 0H46.7041V53H47.3776V0Z" fill="black"/>
<path d="M57.3337 0H56.6602V53H57.3337V0Z" fill="black"/>
<path d="M52.0338 0H51.3604V53H52.0338V0Z" fill="black"/>
<path d="M39.2668 0H37.7148V53H39.2668V0Z" fill="black"/>
<path d="M41.3747 0H39.8228V53H41.3747V0Z" fill="black"/>
<path d="M50.7454 0H48.5493V53H50.7454V0Z" fill="black"/>
<path d="M54.9325 0H52.7363V53H54.9325V0Z" fill="black"/>
<path d="M61.7552 0H59.5591V53H61.7552V0Z" fill="black"/>
<path d="M68.9583 0H66.7622V53H68.9583V0Z" fill="black"/>
<path d="M75.0199 0H72.8237V53H75.0199V0Z" fill="black"/>
<path d="M30.0723 0H29.1646V53H30.0723V0Z" fill="black"/>
<path d="M6.50039 0H4.47998V53H6.50039V0Z" fill="black"/>
<path d="M9.39936 0H7.37891V53H9.39936V0Z" fill="black"/>
<path d="M18.36 0H15.7246V53H18.36V0Z" fill="black"/>
<path d="M20.9364 0H18.8574V53H20.9364V0Z" fill="black"/>
<path d="M25.534 0H23.2793V53H25.534V0Z" fill="black"/>
<path d="M28.6378 0H25.9731V53H28.6378V0Z" fill="black"/>
</svg>
