<svg width="28" height="18" viewBox="0 0 28 18" fill="none" xmlns="http://www.w3.org/2000/svg">
<path d="M16.572 8.6322C16.572 13.2616 12.8622 17.0144 8.28601 17.0144C3.70977 17.0144 0 13.2616 0 8.6322C0 4.00284 3.70977 0.25 8.28601 0.25C12.8622 0.25 16.572 4.00284 16.572 8.6322Z" fill="#ED0006"/>
<path d="M27.3215 8.6322C27.3215 13.2616 23.6118 17.0144 19.0355 17.0144C14.4593 17.0144 10.7495 13.2616 10.7495 8.6322C10.7495 4.00284 14.4593 0.25 19.0355 0.25C23.6118 0.25 27.3215 4.00284 27.3215 8.6322Z" fill="#2F80ED"/>
<path fill-rule="evenodd" clip-rule="evenodd" d="M13.6608 2.25244C15.4423 3.78989 16.572 6.07759 16.572 8.6322C16.572 11.1868 15.4423 13.4745 13.6608 15.012C11.8792 13.4745 10.7495 11.1868 10.7495 8.6322C10.7495 6.07759 11.8792 3.78989 13.6608 2.25244Z" fill="#6C6BBD"/>
</svg>
