<svg width="29" height="18" viewBox="0 0 29 18" fill="none" xmlns="http://www.w3.org/2000/svg">
<path fill-rule="evenodd" clip-rule="evenodd" d="M14.4737 15.0369C12.9937 16.2845 11.0738 17.0376 8.97586 17.0376C4.29477 17.0376 0.5 13.288 0.5 8.6626C0.5 4.03721 4.29477 0.287598 8.97586 0.287598C11.0738 0.287598 12.9937 1.04072 14.4737 2.28827C15.9538 1.04072 17.8737 0.287598 19.9716 0.287598C24.6527 0.287598 28.4474 4.03721 28.4474 8.6626C28.4474 13.288 24.6527 17.0376 19.9716 17.0376C17.8737 17.0376 15.9538 16.2845 14.4737 15.0369Z" fill="#ED0006"/>
<path fill-rule="evenodd" clip-rule="evenodd" d="M14.4736 15.037C16.2961 13.5008 17.4517 11.2151 17.4517 8.6626C17.4517 6.11012 16.2961 3.82435 14.4736 2.28822C15.9537 1.0407 17.8735 0.287598 19.9714 0.287598C24.6525 0.287598 28.4473 4.03721 28.4473 8.6626C28.4473 13.288 24.6525 17.0376 19.9714 17.0376C17.8735 17.0376 15.9537 16.2845 14.4736 15.037Z" fill="#F9A000"/>
<path fill-rule="evenodd" clip-rule="evenodd" d="M14.4736 15.0367C16.296 13.5006 17.4516 11.2148 17.4516 8.66239C17.4516 6.10996 16.296 3.82422 14.4736 2.28809C12.6512 3.82422 11.4956 6.10996 11.4956 8.66239C11.4956 11.2148 12.6512 13.5006 14.4736 15.0367Z" fill="#FD6020"/>
</svg>
