<svg width="29" height="28" viewBox="0 0 29 28" fill="none" xmlns="http://www.w3.org/2000/svg">
<path d="M19.5 13.25H18.4375V9.75C18.4375 8.64531 17.5422 7.75 16.4375 7.75H12.5625C11.4578 7.75 10.5625 8.64531 10.5625 9.75V13.25H9.5C9.22344 13.25 9 13.4734 9 13.75V19.75C9 20.0266 9.22344 20.25 9.5 20.25H19.5C19.7766 20.25 20 20.0266 20 19.75V13.75C20 13.4734 19.7766 13.25 19.5 13.25ZM14.9375 16.9531V17.7812C14.9375 17.85 14.8812 17.9062 14.8125 17.9062H14.1875C14.1188 17.9062 14.0625 17.85 14.0625 17.7812V16.9531C13.9335 16.8605 13.8373 16.7294 13.7875 16.5786C13.7378 16.4278 13.7373 16.2651 13.7859 16.114C13.8345 15.9628 13.9299 15.831 14.0582 15.7375C14.1865 15.644 14.3412 15.5936 14.5 15.5936C14.6588 15.5936 14.8135 15.644 14.9418 15.7375C15.0701 15.831 15.1655 15.9628 15.2141 16.114C15.2627 16.2651 15.2622 16.4278 15.2125 16.5786C15.1627 16.7294 15.0665 16.8605 14.9375 16.9531ZM17.3125 13.25H11.6875V9.75C11.6875 9.26719 12.0797 8.875 12.5625 8.875H16.4375C16.9203 8.875 17.3125 9.26719 17.3125 9.75V13.25Z" fill="#C5831E"/>
<circle cx="14.5" cy="14" r="13.5" stroke="#C5831E"/>
</svg>
