<svg width="94" height="34" viewBox="0 0 94 34" fill="none" xmlns="http://www.w3.org/2000/svg">
<path d="M38.3804 31.2616V12.0451C38.3804 8.5191 41.2132 5.64795 44.6922 5.64795H50.2834C53.7623 5.64795 56.5703 8.5191 56.5703 12.0451V16.1251C56.5703 19.6511 53.7375 22.5222 50.2585 22.5222H42.3563M58.1607 5.64795H60.596C62.0373 5.64795 63.1804 6.83167 63.1804 8.26724V22.623" stroke="#313131" stroke-width="0.7" stroke-miterlimit="22.9256" stroke-linecap="round" stroke-linejoin="round"/>
<path d="M62.6587 3.43153L61.5654 2.32336C61.292 2.04632 61.292 1.59298 61.5654 1.31594L62.6587 0.20778C62.9321 -0.0692601 63.3794 -0.0692601 63.6527 0.20778L64.7461 1.31594C65.0195 1.59298 65.0195 2.04632 64.7461 2.32336L63.6527 3.43153C63.3794 3.70857 62.9321 3.70857 62.6587 3.43153Z" fill="#32BCAD"/>
<path d="M67.8271 5.62305H70.2376C71.48 5.62305 72.6728 6.12676 73.5426 7.00825L79.1834 12.7254C79.9041 13.4557 81.0969 13.4557 81.8175 12.7254L87.4336 7.03344C88.3033 6.15194 89.4961 5.64823 90.7386 5.64823H92.7017M67.8271 22.4973H70.2376C71.48 22.4973 72.6728 21.9936 73.5426 21.1121L79.1834 15.395C79.9041 14.6646 81.0969 14.6646 81.8175 15.395L87.4336 21.0869C88.3033 21.9684 89.4961 22.4721 90.7386 22.4721H92.7017" stroke="#313131" stroke-width="0.7" stroke-miterlimit="22.9256" stroke-linecap="round" stroke-linejoin="round"/>
<path d="M24.0418 26.1492C22.8242 26.1492 21.706 25.6706 20.8362 24.8143L16.2142 20.1298C15.8911 19.8024 15.3196 19.8024 14.9965 20.1298L10.3497 24.8395C9.50477 25.6958 8.36169 26.1744 7.14405 26.1744H6.22461L12.0643 32.0929C13.9032 33.9567 16.8603 33.9567 18.6743 32.0929L24.5388 26.1492H24.0418Z" fill="#32BCAD"/>
<path d="M7.16906 9.57713C8.38669 9.57713 9.50493 10.0557 10.3747 10.912L15.0216 15.6217C15.3446 15.9491 15.8913 15.9491 16.2392 15.6217L20.8612 10.9371C21.7061 10.0808 22.8492 9.60232 24.0669 9.60232H24.6135L18.749 3.65854C16.9101 1.79481 13.953 1.79481 12.139 3.65854L6.29932 9.57713H7.16906Z" fill="#32BCAD"/>
<path d="M29.4345 14.5136L25.881 10.9121C25.8064 10.9373 25.707 10.9625 25.6325 10.9625H24.0172C23.1723 10.9625 22.3772 11.3151 21.7808 11.8943L17.1836 16.604C16.7611 17.0322 16.1896 17.2589 15.618 17.2589C15.0465 17.2589 14.4749 17.0322 14.0525 16.604L9.40561 11.8943C8.80922 11.2899 7.98918 10.9625 7.16914 10.9625H5.18116C5.10661 10.9625 5.00721 10.9373 4.93266 10.9121L1.37916 14.5136C-0.459719 16.3774 -0.459719 19.3744 1.37916 21.213L4.93266 24.8145C5.00721 24.7893 5.08176 24.7641 5.18116 24.7641H7.16914C8.01402 24.7641 8.80922 24.4115 9.40561 23.8323L14.0525 19.1226C14.8974 18.2663 16.3635 18.2663 17.1836 19.1226L21.8056 23.8071C22.402 24.4115 23.222 24.739 24.0421 24.739H25.6573C25.7567 24.739 25.8313 24.7641 25.9058 24.7893L29.4593 21.1878C31.2733 19.3744 31.2733 16.3774 29.4345 14.5136Z" fill="#32BCAD"/>
</svg>
