<svg width="31" height="10" viewBox="0 0 31 10" fill="none" xmlns="http://www.w3.org/2000/svg">
<path fill-rule="evenodd" clip-rule="evenodd" d="M7.93781 9.82277H5.36314L3.43244 2.24042C3.34081 1.89163 3.14623 1.58329 2.86002 1.43796C2.14573 1.07274 1.35864 0.782085 0.5 0.635493V0.343573H4.6476C5.22003 0.343573 5.64935 0.782085 5.72091 1.29137L6.72266 6.76076L9.29608 0.343573H11.7992L7.93781 9.82277ZM13.2303 9.82277H10.7988L12.801 0.343573H15.2326L13.2303 9.82277ZM18.3784 2.96964C18.45 2.4591 18.8793 2.16718 19.3802 2.16718C20.1672 2.09388 21.0246 2.24047 21.7402 2.60443L22.1695 0.563512C21.454 0.271592 20.6669 0.125 19.9526 0.125C17.5926 0.125 15.8753 1.43801 15.8753 3.2603C15.8753 4.6466 17.0917 5.37451 17.9503 5.81302C18.8793 6.25027 19.237 6.54219 19.1655 6.97944C19.1655 7.63531 18.45 7.92723 17.7357 7.92723C16.877 7.92723 16.0184 7.70861 15.2326 7.34339L14.8032 9.38557C15.6619 9.74952 16.5908 9.89611 17.4495 9.89611C20.0957 9.96814 21.7402 8.6564 21.7402 6.68752C21.7402 4.20809 18.3784 4.06276 18.3784 2.96964ZM30.2499 9.82277L28.3192 0.343573H26.2454C25.8161 0.343573 25.3868 0.635493 25.2437 1.07274L21.6685 9.82277H24.1716L24.6712 8.43773H27.7468L28.033 9.82277H30.2499ZM26.6033 2.89625L27.3176 6.46879H25.3154L26.6033 2.89625Z" fill="#28356A"/>
</svg>
