<svg width="24" height="24" viewBox="0 0 24 24" fill="none" xmlns="http://www.w3.org/2000/svg">
<path d="M12.45 21C13.4926 21 14.3457 20.1692 14.3457 19.1538H10.5543C10.5543 20.1692 11.4074 21 12.45 21ZM18.1371 15.4615V10.8462C18.1371 8.01231 16.5921 5.64 13.8718 5.01231V4.38462C13.8718 3.61846 13.2367 3 12.45 3C11.6633 3 11.0282 3.61846 11.0282 4.38462V5.01231C8.3174 5.64 6.76294 8.00308 6.76294 10.8462V15.4615L4.86725 17.3077V18.2308H20.0327V17.3077L18.1371 15.4615ZM16.2414 16.3846H8.65863V10.8462C8.65863 8.55692 10.0899 6.69231 12.45 6.69231C14.8101 6.69231 16.2414 8.55692 16.2414 10.8462V16.3846ZM8.26053 4.45846L6.90512 3.13846C4.63029 4.82769 3.1327 7.43077 3 10.3846H4.89569C5.03786 7.93846 6.32693 5.79692 8.26053 4.45846ZM20.0043 10.3846H21.9C21.7578 7.43077 20.2602 4.82769 17.9949 3.13846L16.6489 4.45846C18.5636 5.79692 19.8621 7.93846 20.0043 10.3846Z" fill="#00BE1E"/>
</svg>
