<svg width="25" height="25" viewBox="0 0 25 25" fill="none" xmlns="http://www.w3.org/2000/svg">
<path d="M13.2875 22.0024L3.4975 12.2124V14.2124C3.4975 14.7424 3.7075 15.2524 4.0875 15.6224L11.8775 23.4124C12.6575 24.1924 13.9275 24.1924 14.7075 23.4124L20.9175 17.2024C21.6975 16.4224 21.6975 15.1524 20.9175 14.3724L13.2875 22.0024Z" fill="#2E73FF"/>
<path d="M11.8775 18.4124C12.2675 18.8024 12.7775 19.0024 13.2875 19.0024C13.7975 19.0024 14.3075 18.8024 14.6975 18.4124L20.9075 12.2024C21.6875 11.4224 21.6875 10.1524 20.9075 9.37244L13.1175 1.58244C12.7475 1.21244 12.2375 1.00244 11.7075 1.00244H5.4975C4.3975 1.00244 3.4975 1.90244 3.4975 3.00244V9.21244C3.4975 9.74244 3.7075 10.2524 4.0875 10.6224L11.8775 18.4124ZM5.4975 3.00244H11.7075L19.4975 10.7924L13.2875 17.0024L5.4975 9.21244V3.00244Z" fill="#2E73FF"/>
<path d="M7.7475 6.50244C8.43785 6.50244 8.9975 5.9428 8.9975 5.25244C8.9975 4.56209 8.43785 4.00244 7.7475 4.00244C7.05714 4.00244 6.4975 4.56209 6.4975 5.25244C6.4975 5.9428 7.05714 6.50244 7.7475 6.50244Z" fill="#2E73FF"/>
</svg>
