  <svg
        width="334"
        height="40"
        viewBox="0 0 334 40"
        fill="none"
        xmlns="http://www.w3.org/2000/svg"
      >
        <g clip-path="url(#clip0_2156_2915)">
          <path
            d="M17.4873 0.625922C16.9974 0.625922 16.5075 0.625919 16.0267 0.67843H0.5V39.1075H17.4873C20.1684 39.203 22.842 38.7761 25.3483 37.8522C27.8545 36.9283 30.142 35.5264 32.0738 33.7303C34.0057 31.9342 35.5423 29.7808 36.5919 27.3988C37.6415 25.0167 38.1825 22.455 38.1825 19.8667C38.1825 17.2784 37.6415 14.7167 36.5919 12.3346C35.5423 9.9526 34.0057 7.79918 32.0738 6.00308C30.142 4.20698 27.8545 2.80507 25.3483 1.88117C22.842 0.957275 20.1684 0.530359 17.4873 0.625922ZM17.4873 29.9094L10.3794 29.8437V9.93343H17.4873C20.2394 9.92026 22.8855 10.9567 24.8492 12.8171C25.8185 13.7361 26.5875 14.8328 27.1109 16.0427C27.6344 17.2526 27.9018 18.5513 27.8973 19.8623C27.8925 22.5248 26.7944 25.0769 24.8433 26.96C22.8922 28.8431 20.2471 29.9036 17.4873 29.9094Z"
            fill="#C4831E"
          />
          <path
            d="M91.4283 16.8733V39.1072H83.5039V36.4817C80.1963 38.5084 76.348 39.5612 72.4299 39.5113C68.5117 39.4614 64.6936 38.3109 61.4426 36.2005C58.1916 34.0902 55.6487 31.1115 54.1248 27.6288C52.601 24.1462 52.1625 20.3106 52.8627 16.5913C53.563 12.872 55.3718 9.43017 58.0678 6.68694C60.7638 3.94372 64.2301 2.01799 68.0428 1.14536C71.8554 0.272724 75.849 0.491007 79.5351 1.77351C83.2212 3.05602 86.4399 5.34714 88.7974 8.36659L80.8186 13.6658C79.382 11.9699 77.4143 10.7688 75.2105 10.2426C73.0067 9.71633 70.6855 9.8933 68.5947 10.747C66.5039 11.6006 64.7563 13.085 63.6136 14.9775C62.471 16.8701 61.995 19.069 62.2569 21.2445C62.5187 23.4201 63.5045 25.4552 65.0663 27.0448C66.6281 28.6344 68.6818 29.6929 70.9198 30.0616C73.1577 30.4303 75.4592 30.0894 77.4793 29.09C79.4995 28.0905 81.1295 26.4864 82.125 24.518H71.6922V16.8733H91.4283Z"
            fill="white"
          />
          <path
            d="M143.627 0.678223V22.3564C143.627 22.5008 143.627 22.6496 143.627 22.794C143.394 27.2791 141.383 31.5064 138.011 34.6015C134.638 37.6966 130.161 39.4226 125.506 39.4226C120.851 39.4226 116.374 37.6966 113.001 34.6015C109.628 31.5064 107.617 27.2791 107.384 22.794C107.384 22.6496 107.384 22.5008 107.384 22.3564V0.678223H117.105V21.8882C117.105 22.0413 117.105 22.1988 117.105 22.3564C117.105 22.5139 117.105 22.6496 117.105 22.794C117.227 24.8613 118.164 26.8052 119.725 28.2272C121.285 29.6491 123.35 30.4413 125.497 30.4413C127.643 30.4413 129.708 29.6491 131.268 28.2272C132.829 26.8052 133.766 24.8613 133.888 22.794C133.888 22.6496 133.888 22.5052 133.888 22.3564C133.888 22.2076 133.888 22.0413 133.888 21.8882V0.678223H143.627Z"
            fill="white"
          />
          <path
            d="M170.51 9.9376V15.7794H188.209V24.0761H170.51V29.8435H191.394V39.1117H160.912V0.678223H191.394V9.9376H170.51Z"
            fill="white"
          />
          <path
            d="M287.9 0.678223V9.9376H275.734V38.7353H265.283V9.9376H253.118V0.678223H287.9Z"
            fill="white"
          />
          <path
            d="M312.967 10.2441C311.896 12.7427 315.416 13.7448 315.416 13.7448C323.2 16.9129 328.711 19.8404 328.725 19.8492C333.714 22.2121 333.465 28.2246 333.465 28.2246C333.465 41.0241 317.094 40.0001 317.094 40.0001C301.377 40.0001 301.867 27.24 301.867 27.24H311.619C311.864 31.861 317.566 32.0535 320.129 31.5415C321.131 31.3315 322.583 30.5526 322.982 29.6424C323.948 27.4544 319.807 25.7566 319.807 25.7566C314.509 23.4899 309.674 21.2757 307.428 20.243C303.641 18.4926 302.439 14.8606 302.076 12.9834C301.944 12.3042 301.899 11.6121 301.94 10.9223C302.688 -0.936318 318.269 0.0395076 318.269 0.0395076C333.986 0.0395076 333.496 12.7996 333.496 12.7996H323.495C323.272 7.33848 317.797 7.96424 315.235 8.50247C314.739 8.59587 314.275 8.80288 313.88 9.10602C313.485 9.40915 313.172 9.79949 312.967 10.2441Z"
            fill="white"
          />
          <path
            d="M218.443 10.2441C217.373 12.7427 220.893 13.7448 220.893 13.7448C228.676 16.9129 234.188 19.8404 234.201 19.8492C239.191 22.2121 238.941 28.2246 238.941 28.2246C238.941 41.0241 222.571 40.0001 222.571 40.0001C206.854 40.0001 207.344 27.24 207.344 27.24H217.096C217.341 31.861 223.043 32.0535 225.606 31.5415C226.608 31.3315 228.06 30.5526 228.459 29.6424C229.425 27.4544 225.284 25.7566 225.284 25.7566C219.986 23.4899 215.15 21.2757 212.905 20.243C209.117 18.4926 207.915 14.8606 207.552 12.9834C207.421 12.3042 207.375 11.6121 207.416 10.9223C208.165 -0.936318 223.746 0.0395076 223.746 0.0395076C239.463 0.0395076 238.973 12.7996 238.973 12.7996H228.994C228.772 7.33848 223.297 7.96424 220.734 8.50247C220.235 8.59263 219.766 8.79816 219.367 9.10148C218.968 9.40479 218.651 9.79683 218.443 10.2441Z"
            fill="white"
          />
        </g>
        <defs>
          <clipPath id="clip0_2156_2915">
            <rect
              width="333"
              height="40"
              fill="white"
              transform="translate(0.5)"
            />
          </clipPath>
        </defs>
      </svg>