<svg xmlns="http://www.w3.org/2000/svg" width="25" height="24" viewBox="0 0 25 24" fill="none">
  <path d="M8.49634 18C7.39634 18 6.50634 18.9 6.50634 20C6.50634 21.1 7.39634 22 8.49634 22C9.59634 22 10.4963 21.1 10.4963 20C10.4963 18.9 9.59634 18 8.49634 18ZM18.4963 18C17.3963 18 16.5063 18.9 16.5063 20C16.5063 21.1 17.3963 22 18.4963 22C19.5963 22 20.4963 21.1 20.4963 20C20.4963 18.9 19.5963 18 18.4963 18ZM17.0463 13C17.7963 13 18.4563 12.59 18.7963 11.97L22.3763 5.48C22.7463 4.82 22.2663 4 21.5063 4H6.70634L5.76634 2H2.49634V4H4.49634L8.09634 11.59L6.74634 14.03C6.01634 15.37 6.97634 17 8.49634 17H20.4963V15H8.49634L9.59634 13H17.0463ZM7.65634 6H19.8063L17.0463 11H10.0263L7.65634 6Z" fill="white"/>
</svg>