<svg width="37" height="34" viewBox="0 0 37 34" fill="none" xmlns="http://www.w3.org/2000/svg">
<path d="M33.3975 5.69482L14.4131 24.6792L7.30371 17.6479L9.72559 15.3042L14.4131 19.9917L31.0537 3.35107L33.3975 5.69482ZM16.7568 30.3823C14.9339 30.3823 13.2152 30.0438 11.6006 29.3667C9.986 28.6375 8.55371 27.674 7.30371 26.4761C6.10579 25.2261 5.14225 23.7938 4.41309 22.1792C3.736 20.5646 3.39746 18.8459 3.39746 17.0229C3.39746 15.2 3.736 13.4813 4.41309 11.8667C5.14225 10.2521 6.10579 8.84587 7.30371 7.64795C8.55371 6.39795 9.986 5.43441 11.6006 4.75732C13.2152 4.02816 14.9339 3.66357 16.7568 3.66357C18.0589 3.66357 19.3089 3.84587 20.5068 4.21045C21.7048 4.57503 22.8245 5.09587 23.8662 5.77295L26.2881 3.35107C24.9339 2.41357 23.4495 1.68441 21.835 1.16357C20.2204 0.642741 18.5277 0.382324 16.7568 0.382324C14.4652 0.382324 12.3037 0.825033 10.2725 1.71045C8.29329 2.54378 6.52246 3.7417 4.95996 5.3042C3.44954 6.81462 2.25163 8.58545 1.36621 10.6167C0.532878 12.5959 0.116211 14.7313 0.116211 17.0229C0.116211 19.3146 0.532878 21.4761 1.36621 23.5073C2.25163 25.4865 3.44954 27.2573 4.95996 28.8198C6.52246 30.3302 8.29329 31.5282 10.2725 32.4136C12.3037 33.2469 14.4652 33.6636 16.7568 33.6636C18.2152 33.6636 19.5954 33.5073 20.8975 33.1948C22.2516 32.8302 23.5277 32.3094 24.7256 31.6323L22.2256 29.1323C21.3923 29.549 20.5068 29.8615 19.5693 30.0698C18.6839 30.2782 17.7464 30.3823 16.7568 30.3823ZM28.3975 22.0229H23.3975V25.3823H28.3975V30.3823H31.7568V25.3823H36.7568V22.0229H31.7568V17.0229H28.3975V22.0229Z" fill="#313131"/>
</svg>
